<?xml version="1.0" encoding="utf-8"?>
<!-- Generator: Adobe Illustrator 17.0.0, SVG Export Plug-In . SVG Version: 6.00 Build 0)  -->
<!DOCTYPE svg PUBLIC "-//W3C//DTD SVG 1.1//EN" "http://www.w3.org/Graphics/SVG/1.1/DTD/svg11.dtd">
<svg version="1.1" xmlns="http://www.w3.org/2000/svg" xmlns:xlink="http://www.w3.org/1999/xlink" x="0px" y="0px"
	 width="140.939px" height="108.631px" viewBox="0 0 140.939 108.631" enable-background="new 0 0 140.939 108.631"
	 xml:space="preserve">
<g id="Layer_4" display="none">
	<g display="inline">
		<path fill="#3AAFA9" d="M70.375,123.746c-18.496-0.001-36.992,0.023-55.488-0.013c-7.164-0.014-13.268-4.279-14.561-10.318
			c-0.473-2.211-0.212-4.538-0.294-6.811c-0.186-5.173,0.428-10.224,2.529-15.134c4.357-10.181,12.442-17.252,23.98-21.346
			c8.624-3.06,17.416-3.533,26.412-0.861C64.53,72.7,76.185,72.56,87.854,69.355c16.66-4.576,30.549-0.246,42.22,10.275
			c7.273,6.556,10.611,14.614,10.809,23.648c0.058,2.648,0.087,5.299-0.002,7.945c-0.236,7.039-6.65,12.491-14.834,12.51
			C107.491,123.777,88.933,123.747,70.375,123.746z M15.134,110.906c0.75,0,1.533,0,2.316,0c21.561,0.002,43.122,0.005,64.683,0.006
			c14.005,0.001,28.011-0.016,42.016,0.025c1.472,0.004,2.123-0.286,2.017-1.66c-0.126-1.635-0.016-3.282-0.048-4.923
			c-0.107-5.439-1.847-10.378-5.679-14.798c-5.603-6.463-17.735-11.5-28.505-8.014c-4.698,1.521-9.85,2.209-14.873,2.727
			c-10.017,1.032-19.803-0.219-29.394-2.92c-2.392-0.674-5.09-1.111-7.564-0.907C22.921,81.857,12.371,94.342,15.134,110.906z"/>
		<path fill="#3AAFA9" d="M31.46,23.867C31.594,2.15,49.014-15.127,70.471-15.125c21.335,0.002,38.917,17.054,39.008,38.975
			c0.089,21.484-17.59,39.088-38.989,39.047C48.972,62.856,31.502,45.386,31.46,23.867z M96.608,23.933
			C96.623,9.472,84.957-2.3,70.556-2.356C56.19-2.411,44.358,9.387,44.343,23.784c-0.016,14.502,11.725,26.278,26.223,26.301
			C84.771,50.106,96.594,38.234,96.608,23.933z"/>
	</g>
</g>
<g id="Layer_3" display="none">
	<g display="inline">
		<path fill="#3AAFA9" d="M69.382,107.041c-7.378,0.117-15.232-1.179-22.935-3.455c-1.182-0.349-2.074-0.188-3.094,0.507
			c-9.196,6.262-19.291,10.211-30.367,11.5c-2.286,0.266-4.613,0.362-6.912,0.275c-2.57-0.097-4.472-1.5-5.479-3.862
			c-1.053-2.47-0.717-4.859,1.072-6.904c3.972-4.54,7.515-9.372,10.293-14.74c0.615-1.189,1.087-2.457,1.753-3.614
			c0.806-1.401,0.598-2.406-0.499-3.658c-4.163-4.75-7.541-10.023-9.82-15.946C-1.565,54.25-1.063,41.53,4.879,29.091
			C10.159,18.034,18.587,9.893,29.021,3.694C39.833-2.729,51.579-6.05,64.069-7.003c12.497-0.953,24.652,0.655,36.316,5.183
			c14.623,5.676,26.807,14.551,34.374,28.64c8.44,15.716,8.209,31.61-0.527,47.143c-7.234,12.861-18.443,21.241-31.853,26.919
			C92.758,104.954,81.42,107.139,69.382,107.041z M21.512,100.417c0.538-0.161,0.893-0.258,1.241-0.373
			c6.128-2.029,11.66-5.208,16.716-9.141c2.175-1.692,4.011-1.978,6.641-1.078c14.189,4.854,28.622,5.752,43.17,1.741
			c14.009-3.862,25.888-10.923,33.473-23.781c6.139-10.406,6.757-21.313,1.773-32.36c-4.641-10.287-12.65-17.38-22.556-22.289
			C85.569,5.008,68.406,3.648,50.814,8.503c-12.201,3.367-22.632,9.592-30.417,19.847c-9.107,11.997-9.872,28.363-1.429,40.783
			c2.814,4.139,6.437,7.733,9.749,11.524c0.643,0.736,0.89,1.304,0.492,2.261c-1.007,2.424-1.796,4.941-2.86,7.338
			C24.854,93.623,23.19,96.914,21.512,100.417z"/>
		<path fill="#3AAFA9" d="M48.195,49.971c-0.008,4.792-3.942,8.725-8.671,8.671c-4.749-0.055-8.706-4.074-8.645-8.78
			c0.062-4.772,4.034-8.698,8.755-8.654C44.435,41.252,48.203,45.11,48.195,49.971z"/>
		<path fill="#3AAFA9" d="M79.066,49.969c-0.004,4.771-3.979,8.735-8.692,8.666c-4.833-0.071-8.624-3.932-8.601-8.762
			c0.023-4.846,3.851-8.649,8.697-8.641C75.267,41.241,79.07,45.106,79.066,49.969z"/>
		<path fill="#3AAFA9" d="M92.653,49.972c-0.009-4.937,3.666-8.693,8.55-8.737c4.78-0.043,8.681,3.804,8.749,8.629
			c0.067,4.705-3.889,8.721-8.641,8.772C96.532,58.687,92.662,54.813,92.653,49.972z"/>
	</g>
</g>
<g id="Layer_2" display="none">
	<g display="inline">
		<path fill="#3AAFA9" d="M70.605-16.166c40.41,0.53,71.426,32.958,70.305,72.54c-1.075,37.96-31.452,68.582-70.819,68.424
			C30.097,124.638-1.15,91.99,0.033,52.283C1.17,14.115,31.753-15.871,70.605-16.166z M70.49,77.191c0,0.003,0,0.005,0,0.008
			c-3.329,0-6.659-0.048-9.985,0.041c-0.66,0.018-1.552,0.381-1.922,0.887c-3.82,5.241-7.575,10.531-11.277,15.856
			c-0.324,0.466-0.395,1.392-0.162,1.916c1.78,3.995,3.644,7.954,5.544,11.894c0.229,0.474,0.772,0.969,1.27,1.117
			c10.904,3.241,21.834,3.335,32.75,0.072c0.637-0.19,1.342-0.795,1.634-1.393c1.874-3.829,3.681-7.692,5.403-11.592
			c0.249-0.564,0.174-1.557-0.175-2.054c-3.696-5.263-7.499-10.451-11.213-15.7c-0.596-0.843-1.247-1.083-2.216-1.069
			C76.926,77.22,73.708,77.191,70.49,77.191z M13.473,56.507c0.544,11.223,3.928,21.231,10.141,30.265
			c0.394,0.572,1.253,1.044,1.956,1.147c4.113,0.6,8.248,1.045,12.366,1.615c1.06,0.147,1.725-0.077,2.36-0.994
			c3.569-5.153,7.182-10.276,10.839-15.366c0.629-0.875,0.678-1.615,0.353-2.591c-2.031-6.102-4.031-12.215-5.987-18.341
			c-0.334-1.045-0.837-1.646-1.934-1.976c-5.884-1.769-11.753-3.591-17.602-5.474c-1-0.322-1.627-0.162-2.357,0.53
			c-2.9,2.749-5.813,5.487-8.802,8.138C13.751,54.397,13.144,55.351,13.473,56.507z M127.449,56.438
			c0.325-1.15-0.379-2.082-1.406-3.005c-2.971-2.669-5.886-5.402-8.776-8.159c-0.691-0.659-1.265-0.792-2.201-0.496
			c-5.968,1.884-11.971,3.659-17.935,5.555c-0.61,0.194-1.314,0.86-1.514,1.46c-2.137,6.408-4.202,12.841-6.215,19.29
			c-0.178,0.57-0.065,1.444,0.272,1.927c3.644,5.231,7.372,10.404,11.041,15.618c0.546,0.775,1.119,1.059,2.077,0.928
			c4.17-0.57,8.355-1.038,12.522-1.629c0.624-0.088,1.377-0.493,1.742-0.992C123.641,77.948,126.832,67.78,127.449,56.438z
			 M74.977,18.304c0,3.051,0.045,6.104-0.024,9.154c-0.024,1.061,0.309,1.721,1.175,2.339c5.368,3.837,10.706,7.716,16.027,11.618
			c0.789,0.578,1.467,0.715,2.426,0.407c5.851-1.883,11.717-3.719,17.598-5.504c1.066-0.323,1.474-0.89,1.666-1.946
			c0.752-4.142,1.637-8.259,2.366-12.404c0.123-0.7-0.046-1.668-0.467-2.214c-6.838-8.867-15.451-15.348-26.073-19.035
			c-0.628-0.218-1.547-0.158-2.131,0.15c-3.823,2.014-7.573,4.165-11.39,6.192c-0.929,0.493-1.212,1.087-1.194,2.09
			C75.013,12.2,74.978,15.252,74.977,18.304z M65.96,18.441c0-3.164,0.055-6.33-0.048-9.49c-0.02-0.611-0.51-1.456-1.035-1.76
			C61.09,4.994,57.251,2.885,53.39,0.818c-0.506-0.271-1.3-0.349-1.837-0.162C40.929,4.354,32.339,10.857,25.411,19.664
			c-0.759,0.965-0.752,1.881-0.546,2.939c0.761,3.914,1.546,7.824,2.241,11.749c0.187,1.054,0.588,1.63,1.656,1.956
			c5.938,1.812,11.845,3.726,17.788,5.518c0.614,0.185,1.555,0.019,2.081-0.355c5.468-3.891,10.9-7.834,16.283-11.843
			c0.548-0.408,0.973-1.331,0.998-2.03C66.02,24.549,65.958,21.494,65.96,18.441z"/>
	</g>
</g>
<g id="Layer_6" display="none">
	<g display="inline">
		<path fill="#3AAFA9" d="M70.551-16.147c38.605-0.021,70.348,31.659,70.388,70.25c0.041,39.147-31.332,70.576-70.551,70.676
			C31.717,124.878-0.04,93.142,0,54.436C0.04,15.429,31.58-16.126,70.551-16.147z M70.407,111.27
			c31.255,0.285,57.296-25.431,57.041-57.363C127.199,22.848,102.238-2.519,70.7-2.669C38.845-2.82,13.422,22.875,13.496,54.774
			C13.568,85.952,39.164,111.361,70.407,111.27z"/>
		<path fill="#3AAFA9" d="M62.554,37.809c0-7.37-0.004-14.739,0.002-22.109c0.003-3.302,1.087-4.402,4.352-4.418
			c2.327-0.011,4.654,0.001,6.982,0.01c3.41,0.013,4.486,1.072,4.488,4.446c0.007,9.752,0.006,19.505,0.007,29.257
			c0,2.66,0.103,5.325-0.046,7.977c-0.084,1.489,0.513,2.301,1.642,3.109c5.538,3.966,11.029,7.997,16.53,12.014
			c2.671,1.95,2.907,3.413,0.976,6.12c-1.447,2.029-2.914,4.044-4.392,6.05c-1.579,2.142-3.247,2.425-5.404,0.863
			c-7.76-5.619-15.498-11.27-23.261-16.884c-1.334-0.965-1.889-2.195-1.882-3.828c0.034-7.536,0.015-15.072,0.015-22.608
			C62.558,37.809,62.556,37.809,62.554,37.809z"/>
	</g>
</g>
<g id="Layer_8" display="none">
	<g display="inline">
		<path fill="#3AAFA9" d="M70.582-16.147c38.689,0.071,70.35,31.699,70.357,70.281c0.007,39.161-31.406,70.602-70.582,70.646
			C31.645,124.823-0.074,93.096,0,54.405C0.075,15.388,31.695-16.219,70.582-16.147z M116.472,87.453
			c14.631-18.667,16.66-52.019-6.799-74.416c-22.186-21.181-57.27-21.081-79.369,0.95C7.962,36.26,9.982,68.973,24.235,87.16
			c0.1-0.034,0.227-0.041,0.296-0.108c0.24-0.229,0.478-0.465,0.685-0.724c4.009-5.013,9.075-8.631,15.012-10.94
			c6.285-2.444,12.631-3.666,19.431-1.532c7.411,2.326,15.013,2.077,22.441-0.185c3.448-1.05,6.862-1.244,10.329-0.632
			c9.212,1.626,17.036,5.768,23.065,13.049C115.84,86.506,116.129,86.971,116.472,87.453z M107.437,97.506
			c-2.146-3.906-7.095-8.076-11.58-9.678c-3.456-1.235-6.908-2.156-10.676-1.054c-8.669,2.537-17.447,2.782-26.268,0.749
			c-3.542-0.816-7.005-1.793-10.748-0.728c-6.235,1.774-11.123,5.232-14.709,10.595C53.204,115.203,85.81,116.484,107.437,97.506z"
			/>
		<path fill="#3AAFA9" d="M70.554,11.297c14.326-0.368,27.384,12.054,27.134,27.479c-0.244,14.976-12.489,26.938-27.551,26.766
			c-15.038-0.171-27.041-12.422-26.875-27.43C43.428,23.173,55.652,11.163,70.554,11.297z M84.186,38.453
			c0.008-7.611-6.037-13.704-13.688-13.797c-7.48-0.091-13.728,6.153-13.738,13.729c-0.011,7.604,6.044,13.713,13.682,13.806
			C77.919,52.281,84.178,46.024,84.186,38.453z"/>
	</g>
</g>
<g id="Layer_7" display="none">
	<g id="Layer_5" display="inline">
		<g>
			<g>
				<path fill="#3AAFA9" d="M66.759-19.494c0.629,0,1.258,0.005,1.887,0.009c0.688,0.005,1.375,0.01,2.063,0.01h0.103l0.103-0.002
					c0.31-0.005,0.622-0.008,0.932-0.008c27.05,0,51.138,20.365,56.03,47.37c2.836,15.659,0.037,29.522-8.557,42.382
					c-8.437,12.624-37.236,44.405-48.889,56.963c-5.451-5.339-31.324-31.027-44.511-50.288c-5.191-7.581-9.085-14.076-11.223-21.13
					c-4.586-15.135-3.386-29.258,3.67-43.178C27.363-5.117,41.676-15.525,62.12-19.182c0.924-0.165,1.69-0.257,2.341-0.279
					C65.12-19.483,65.85-19.494,66.759-19.494 M70.252,74.159c0.198,0.003,0.397,0.005,0.594,0.005
					c8.897,0,17.748-3.576,24.283-9.81c7.022-6.7,10.915-15.862,10.962-25.8c0.044-9.384-3.659-18.273-10.429-25.029
					C88.954,6.83,80.133,3.119,70.822,3.077l-0.158,0c-9.18,0-17.908,3.454-24.577,9.725c-7.072,6.65-11.02,15.808-11.119,25.786
					c-0.093,9.374,3.54,18.257,10.228,25.012C51.822,70.291,60.951,74.137,70.252,74.159 M66.759-31.494
					c-0.902,0-1.804,0.009-2.705,0.04c-1.353,0.046-2.713,0.22-4.047,0.459C36.355-26.764,18.562-14.296,7.661,7.21
					c-8.436,16.644-9.883,34.156-4.451,52.083c2.707,8.934,7.593,16.816,12.806,24.429c15.6,22.785,47.107,53.144,47.107,53.144
					c2.558,2.59,5.002,3.955,7.459,3.955c2.491,0,4.996-1.403,7.648-4.357c0,0,39.937-42.878,51.066-59.529
					c10.417-15.587,13.739-32.694,10.388-51.189c-5.919-32.676-34.943-57.231-67.838-57.231c-0.378,0-0.759,0.003-1.138,0.01
					C69.392-31.474,68.075-31.494,66.759-31.494L66.759-31.494z M70.332,62.159c-12.75,0-23.491-10.596-23.364-23.453
					c0.141-14.261,11.534-23.63,23.697-23.63c0.036,0,0.072,0,0.107,0c12.618,0.057,23.38,10.65,23.32,23.421
					C94.025,52.74,82.585,62.164,70.847,62.164c-0.158,0-0.318-0.002-0.476-0.005C70.358,62.159,70.345,62.159,70.332,62.159
					L70.332,62.159z"/>
			</g>
		</g>
	</g>
</g>
<g id="Layer_9">
	<g id="Layer_9_1_">
		<g id="Layer_9_2_">
			<g>
				<g>
					<path fill="#3AAFA9" d="M87.228,64.497c5.612,0.033,9.904,2.017,13.496,6.236c2.496,2.932,3.789,6.117,3.952,9.736
						c0.165,3.655,0.176,16.186-0.162,18.501c-0.23,1.575-2.016,1.656-2.372,1.656c-4.21,0.003-8.422,0.004-12.632,0.004
						l-11.473-0.002l-7.599-0.001l-11.748-0.001h-2.871l-16.705-0.001c-0.676,0-1.607-0.126-2.203-0.727
						c-0.564-0.569-0.677-1.446-0.672-2.081c0.005-0.595,0.006-1.454,0.008-2.492c0.007-3.662,0.028-14.805,0.423-17.146
						c1.149-6.808,7.339-12.61,14.397-13.494c0.891-0.112,1.842-0.154,2.703-0.171c5.517,2.307,11.139,3.477,16.721,3.477
						C76.088,67.991,81.716,66.816,87.228,64.497 M87.086,56.497c-0.115,0-0.233,0.001-0.349,0.002
						c-0.745,0.008-1.54,0.163-2.222,0.459c-4.681,2.026-9.353,3.034-14.024,3.034c-4.735,0-9.469-1.037-14.204-3.1
						c-0.558-0.243-1.208-0.386-1.816-0.386c-0.011,0-0.023,0-0.034,0c-1.456,0.013-2.921,0.062-4.365,0.243
						c-10.52,1.318-19.531,9.672-21.291,20.1c-0.602,3.566-0.514,17.266-0.542,20.907c-0.05,6.368,4.523,10.869,10.872,10.87
						c5.569,0.001,11.137,0.001,16.707,0.001c0.957,0,1.915,0,2.871,0c3.916,0,7.831,0,11.747,0.001
						c6.358,0.001,12.715,0.003,19.074,0.003c4.212,0,8.426-0.001,12.638-0.004c5.155-0.004,9.536-3.397,10.282-8.499
						c0.48-3.284,0.388-16.684,0.238-20.019c-0.248-5.494-2.304-10.392-5.852-14.56C101.654,59.484,95.016,56.497,87.086,56.497
						L87.086,56.497z"/>
				</g>
				<g>
					<path fill="#3AAFA9" d="M70.576,0.001l0.04,8c9.085,0.021,16.474,7.468,16.473,16.6c-0.001,9.146-7.427,16.587-16.564,16.587
						c-4.516-0.003-8.744-1.759-11.906-4.945c-3.102-3.127-4.794-7.257-4.762-11.631c0.067-9.314,7.411-16.61,16.718-16.61
						L70.576,0.001 M70.576,0.001C56.934,0.002,45.957,10.897,45.859,24.553c-0.098,13.568,10.973,24.626,24.663,24.634
						c0.005,0,0.01,0,0.015,0c13.577,0,24.552-10.988,24.554-24.586C95.093,11.092,84.097,0.031,70.636,0
						C70.615,0.001,70.596,0.001,70.576,0.001L70.576,0.001z"/>
				</g>
				<g>
					<path fill="#3AAFA9" d="M121.019,57.329L121.019,57.329c2.357,0,4.472,0.053,6.466,0.161c3.184,0.173,5.359,2.587,5.411,6.006
						c0.011,0.73,0,1.497-0.011,2.31c-0.017,1.179-0.034,2.391,0.011,3.669c-1.556-0.002-3.112-0.003-4.668-0.003
						c-0.792,0-1.585,0-2.376,0.001c-1.393-4.466-3.488-8.517-6.273-12.138C120.06,57.331,120.539,57.329,121.019,57.329
						 M121.019,49.329c-3.235,0-6.474,0.095-9.704,0.205c-3.13,0.107-5.839,1.56-8.191,3.776c0.102,0.148,0.117,0.193,0.148,0.212
						c8.787,5.303,14.353,12.85,16.066,23.075c0.112,0.67,0.453,0.895,1.122,0.895c0.006,0,0.012,0,0.018,0
						c2.583-0.016,5.167-0.02,7.75-0.02c1.797,0,3.594,0.002,5.39,0.004c0.003,0,0.007,0,0.01,0c4.549,0,7.539-3.493,7.298-7.533
						c-0.13-2.182,0.002-4.379-0.031-6.569c-0.115-7.514-5.482-13.466-12.976-13.873C125.623,49.377,123.322,49.329,121.019,49.329
						L121.019,49.329z"/>
				</g>
				<g>
					<path fill="#3AAFA9" d="M119.866,22.141c1.635,0,3.152,0.617,4.27,1.737c1.136,1.138,1.76,2.69,1.756,4.369
						c-0.007,3.226-2.755,5.952-6.005,5.954c-1.577,0-3.076-0.631-4.219-1.775c-1.173-1.175-1.818-2.731-1.816-4.38
						c0.005-3.2,2.758-5.904,6.011-5.905H119.866 M119.866,14.141h-0.002c-7.665,0.001-14,6.282-14.011,13.893
						c-0.012,7.79,6.307,14.168,14.035,14.168c0.002,0,0.005,0,0.007,0c7.641-0.004,13.983-6.319,13.998-13.938
						C133.908,20.392,127.699,14.14,119.866,14.141L119.866,14.141z"/>
				</g>
				<g>
					<path fill="#3AAFA9" d="M19.921,57.329c0.48,0,0.959,0.002,1.441,0.006c-2.786,3.621-4.881,7.673-6.274,12.138
						c-0.792-0.001-1.584-0.001-2.376-0.001c-1.556,0-3.112,0.002-4.668,0.003c0.045-1.278,0.028-2.49,0.011-3.669
						c-0.011-0.812-0.022-1.579-0.011-2.31c0.052-3.42,2.227-5.833,5.411-6.006C15.449,57.382,17.564,57.329,19.921,57.329
						 M19.921,49.329c-2.303,0-4.604,0.048-6.9,0.173C5.527,49.909,0.159,55.861,0.045,63.375c-0.033,2.19,0.099,4.386-0.031,6.569
						c-0.241,4.039,2.749,7.533,7.298,7.533c0.003,0,0.007,0,0.01,0c1.797-0.002,3.594-0.004,5.39-0.004
						c2.584,0,5.167,0.004,7.75,0.02c0.006,0,0.012,0,0.018,0c0.669,0,1.01-0.224,1.122-0.895
						c1.713-10.226,7.279-17.772,16.066-23.075c0.031-0.019,0.046-0.064,0.148-0.212c-2.352-2.216-5.061-3.669-8.191-3.776
						C26.395,49.424,23.156,49.329,19.921,49.329L19.921,49.329z"/>
				</g>
				<g>
					<path fill="#3AAFA9" d="M21.075,22.141c3.254,0,6.008,2.705,6.012,5.905c0.003,1.649-0.642,3.205-1.816,4.38
						c-1.143,1.145-2.641,1.775-4.222,1.775c-3.247-0.002-5.996-2.728-6.002-5.954c-0.003-1.679,0.62-3.231,1.756-4.369
						C17.922,22.758,19.439,22.141,21.075,22.141L21.075,22.141 M21.074,14.141c-7.833,0-14.043,6.252-14.027,14.123
						c0.015,7.619,6.357,13.934,13.998,13.938c0.002,0,0.005,0,0.007,0c7.727,0,14.046-6.378,14.035-14.168
						c-0.012-7.611-6.346-13.892-14.011-13.893C21.076,14.141,21.075,14.141,21.074,14.141L21.074,14.141z"/>
				</g>
			</g>
		</g>
	</g>
</g>
</svg>
