<?xml version="1.0" encoding="utf-8"?>
<!-- Generator: Adobe Illustrator 17.0.0, SVG Export Plug-In . SVG Version: 6.00 Build 0)  -->
<!DOCTYPE svg PUBLIC "-//W3C//DTD SVG 1.1//EN" "http://www.w3.org/Graphics/SVG/1.1/DTD/svg11.dtd">
<svg version="1.1" xmlns="http://www.w3.org/2000/svg" xmlns:xlink="http://www.w3.org/1999/xlink" x="0px" y="0px"
	 width="140.939px" height="140.927px" viewBox="0 0 140.939 140.927" enable-background="new 0 0 140.939 140.927"
	 xml:space="preserve">
<g id="Layer_4" display="none">
	<g display="inline">
		<path fill="#3AAFA9" d="M70.375,139.894c-18.496-0.001-36.992,0.023-55.488-0.013c-7.164-0.014-13.268-4.279-14.561-10.318
			c-0.473-2.211-0.212-4.538-0.294-6.811c-0.186-5.173,0.428-10.224,2.529-15.134c4.357-10.181,12.442-17.252,23.98-21.346
			c8.624-3.06,17.416-3.533,26.412-0.861c11.577,3.439,23.231,3.299,34.901,0.094c16.66-4.576,30.549-0.246,42.22,10.275
			c7.273,6.556,10.611,14.614,10.809,23.648c0.058,2.648,0.087,5.299-0.002,7.945c-0.236,7.039-6.65,12.491-14.834,12.51
			C107.491,139.924,88.933,139.895,70.375,139.894z M15.134,127.053c0.75,0,1.533,0,2.316,0c21.561,0.002,43.122,0.005,64.683,0.006
			c14.005,0.001,28.011-0.016,42.016,0.025c1.472,0.004,2.123-0.286,2.017-1.66c-0.127-1.635-0.016-3.282-0.048-4.923
			c-0.107-5.439-1.847-10.378-5.679-14.798c-5.603-6.463-17.735-11.5-28.505-8.014c-4.698,1.521-9.85,2.209-14.873,2.727
			c-10.017,1.032-19.803-0.219-29.394-2.92c-2.392-0.674-5.09-1.111-7.564-0.907C22.921,98.005,12.371,110.489,15.134,127.053z"/>
		<path fill="#3AAFA9" d="M31.46,40.014C31.594,18.297,49.014,1.021,70.471,1.023c21.335,0.002,38.917,17.054,39.008,38.975
			c0.089,21.484-17.59,39.088-38.989,39.047C48.972,79.003,31.502,61.533,31.46,40.014z M96.608,40.081
			c0.015-14.461-11.652-26.233-26.052-26.289C56.19,13.736,44.358,25.535,44.343,39.931c-0.016,14.502,11.725,26.278,26.223,26.301
			C84.771,66.253,96.594,54.381,96.608,40.081z"/>
	</g>
</g>
<g id="Layer_3" display="none">
	<g display="inline">
		<path fill="#3AAFA9" d="M69.382,123.188c-7.378,0.117-15.232-1.179-22.935-3.455c-1.182-0.349-2.074-0.188-3.094,0.507
			c-9.196,6.262-19.291,10.211-30.367,11.5c-2.286,0.266-4.613,0.362-6.912,0.275c-2.57-0.097-4.472-1.5-5.479-3.862
			c-1.053-2.47-0.717-4.859,1.072-6.904c3.972-4.54,7.515-9.372,10.293-14.74c0.615-1.189,1.087-2.457,1.753-3.614
			c0.806-1.401,0.598-2.406-0.499-3.658c-4.163-4.75-7.541-10.023-9.82-15.946c-4.959-12.893-4.457-25.614,1.484-38.053
			c5.281-11.056,13.709-19.198,24.143-25.397c10.812-6.423,22.558-9.745,35.047-10.697c12.497-0.953,24.652,0.655,36.316,5.183
			c14.623,5.676,26.807,14.551,34.374,28.64c8.44,15.716,8.209,31.61-0.527,47.143c-7.234,12.861-18.443,21.241-31.853,26.919
			C92.758,121.102,81.42,123.286,69.382,123.188z M21.512,116.565c0.538-0.161,0.893-0.258,1.241-0.373
			c6.128-2.029,11.66-5.208,16.716-9.141c2.175-1.692,4.011-1.978,6.641-1.078c14.189,4.854,28.622,5.752,43.17,1.741
			c14.009-3.862,25.888-10.923,33.473-23.781c6.139-10.406,6.757-21.313,1.773-32.36c-4.641-10.287-12.65-17.38-22.556-22.289
			c-16.402-8.128-33.566-9.488-51.158-4.632c-12.201,3.367-22.632,9.592-30.417,19.847c-9.107,11.997-9.872,28.363-1.429,40.783
			c2.814,4.139,6.437,7.733,9.749,11.524c0.643,0.736,0.89,1.304,0.492,2.261c-1.007,2.424-1.796,4.941-2.86,7.338
			C24.854,109.77,23.19,113.061,21.512,116.565z"/>
		<path fill="#3AAFA9" d="M48.195,66.119c-0.008,4.792-3.942,8.725-8.671,8.671c-4.749-0.055-8.706-4.074-8.645-8.78
			c0.062-4.772,4.034-8.698,8.755-8.654C44.434,57.4,48.203,61.257,48.195,66.119z"/>
		<path fill="#3AAFA9" d="M79.066,66.117c-0.004,4.771-3.979,8.735-8.692,8.666c-4.833-0.071-8.624-3.932-8.601-8.762
			c0.023-4.846,3.851-8.649,8.697-8.641C75.267,57.388,79.07,61.253,79.066,66.117z"/>
		<path fill="#3AAFA9" d="M92.652,66.119c-0.009-4.937,3.666-8.693,8.55-8.737c4.78-0.043,8.681,3.804,8.749,8.629
			c0.067,4.705-3.889,8.721-8.641,8.772C96.532,74.834,92.661,70.961,92.652,66.119z"/>
	</g>
</g>
<g id="Layer_2" display="none">
	<g display="inline">
		<path fill="#355961" d="M70.605-0.019c40.41,0.53,71.426,32.958,70.305,72.54c-1.075,37.96-31.452,68.582-70.819,68.424
			c-39.993-0.16-71.241-32.808-70.058-72.514C1.17,30.263,31.753,0.277,70.605-0.019z M70.49,93.338c0,0.003,0,0.005,0,0.008
			c-3.329,0-6.659-0.048-9.985,0.041c-0.66,0.018-1.552,0.381-1.922,0.887c-3.82,5.241-7.575,10.531-11.277,15.856
			c-0.324,0.466-0.395,1.392-0.162,1.916c1.78,3.995,3.644,7.954,5.544,11.894c0.229,0.474,0.772,0.969,1.27,1.117
			c10.904,3.241,21.834,3.335,32.75,0.072c0.637-0.19,1.342-0.795,1.634-1.393c1.874-3.829,3.681-7.692,5.403-11.592
			c0.249-0.564,0.174-1.557-0.175-2.054c-3.696-5.263-7.499-10.451-11.213-15.7c-0.596-0.843-1.247-1.083-2.216-1.069
			C76.926,93.368,73.708,93.338,70.49,93.338z M13.473,72.655c0.544,11.223,3.928,21.231,10.141,30.265
			c0.394,0.572,1.253,1.044,1.956,1.147c4.113,0.6,8.248,1.045,12.366,1.615c1.06,0.147,1.725-0.077,2.36-0.994
			c3.569-5.153,7.182-10.276,10.839-15.366c0.629-0.875,0.678-1.615,0.353-2.591c-2.031-6.102-4.031-12.215-5.987-18.341
			c-0.334-1.045-0.837-1.646-1.934-1.976c-5.884-1.769-11.753-3.591-17.602-5.474c-1-0.322-1.627-0.162-2.357,0.53
			c-2.9,2.749-5.813,5.487-8.802,8.138C13.751,70.545,13.144,71.499,13.473,72.655z M127.449,72.585
			c0.325-1.15-0.379-2.082-1.406-3.005c-2.971-2.669-5.886-5.402-8.776-8.159c-0.691-0.659-1.265-0.792-2.201-0.496
			c-5.968,1.884-11.971,3.659-17.935,5.555c-0.61,0.194-1.314,0.86-1.514,1.46c-2.137,6.408-4.202,12.841-6.215,19.29
			c-0.178,0.57-0.065,1.444,0.272,1.927c3.644,5.231,7.372,10.404,11.041,15.618c0.546,0.775,1.119,1.059,2.077,0.928
			c4.17-0.57,8.355-1.038,12.522-1.629c0.624-0.088,1.377-0.493,1.742-0.992C123.641,94.095,126.832,83.927,127.449,72.585z
			 M74.977,34.451c0,3.051,0.045,6.104-0.024,9.154c-0.024,1.061,0.309,1.721,1.175,2.339c5.368,3.837,10.706,7.716,16.027,11.618
			c0.789,0.578,1.467,0.715,2.426,0.407c5.851-1.883,11.717-3.719,17.598-5.504c1.066-0.323,1.474-0.89,1.666-1.946
			c0.752-4.142,1.637-8.259,2.366-12.404c0.123-0.7-0.046-1.668-0.467-2.214c-6.838-8.867-15.451-15.348-26.073-19.035
			c-0.628-0.218-1.547-0.158-2.131,0.15c-3.823,2.014-7.573,4.165-11.39,6.192c-0.929,0.493-1.212,1.087-1.194,2.09
			C75.013,28.347,74.978,31.4,74.977,34.451z M65.96,34.589c0-3.164,0.055-6.33-0.048-9.49c-0.02-0.611-0.51-1.456-1.035-1.76
			c-3.788-2.197-7.627-4.306-11.487-6.373c-0.506-0.271-1.3-0.349-1.837-0.162c-10.625,3.697-19.214,10.201-26.142,19.007
			c-0.759,0.965-0.752,1.881-0.546,2.939c0.761,3.914,1.546,7.824,2.241,11.749c0.187,1.054,0.588,1.63,1.656,1.956
			c5.938,1.812,11.845,3.726,17.788,5.518c0.614,0.185,1.555,0.019,2.081-0.355c5.468-3.891,10.9-7.834,16.283-11.843
			c0.548-0.408,0.973-1.331,0.998-2.03C66.02,40.697,65.958,37.642,65.96,34.589z"/>
	</g>
</g>
<g id="Layer_6" display="none">
	<g display="inline">
		<path fill="#355961" d="M70.55,0c38.605-0.021,70.348,31.659,70.389,70.25c0.041,39.147-31.332,70.576-70.551,70.676
			C31.717,141.026-0.04,109.289,0,70.583C0.04,31.576,31.58,0.022,70.55,0z M70.406,127.418
			c31.255,0.285,57.296-25.431,57.041-57.363c-0.249-31.059-25.21-56.427-56.747-56.576c-31.855-0.151-57.278,25.544-57.204,57.443
			C13.568,102.1,39.164,127.509,70.406,127.418z"/>
		<path fill="#355961" d="M62.554,53.957c0-7.37-0.004-14.739,0.002-22.109c0.003-3.302,1.087-4.402,4.352-4.418
			c2.327-0.011,4.654,0.001,6.982,0.01c3.41,0.013,4.486,1.072,4.488,4.446c0.007,9.752,0.006,19.505,0.007,29.257
			c0,2.66,0.103,5.325-0.046,7.977c-0.084,1.489,0.513,2.301,1.642,3.109c5.538,3.966,11.029,7.997,16.53,12.014
			c2.671,1.95,2.907,3.413,0.976,6.12c-1.447,2.029-2.914,4.044-4.392,6.05c-1.579,2.142-3.247,2.425-5.404,0.863
			c-7.76-5.619-15.498-11.27-23.261-16.884c-1.334-0.965-1.889-2.195-1.882-3.828c0.034-7.536,0.015-15.072,0.015-22.608
			C62.558,53.957,62.556,53.957,62.554,53.957z"/>
	</g>
</g>
<g id="Layer_8">
	<g>
		<path fill="#3AAFA9" d="M70.582,0c38.689,0.071,70.35,31.699,70.357,70.281c0.007,39.161-31.406,70.602-70.582,70.646
			C31.644,140.97-0.074,109.244,0,70.553C0.075,31.535,31.695-0.072,70.582,0z M116.472,103.6
			c14.631-18.667,16.66-52.019-6.799-74.416c-22.186-21.181-57.27-21.081-79.369,0.95C7.962,52.407,9.982,85.12,24.234,103.308
			c0.1-0.034,0.227-0.041,0.296-0.108c0.24-0.229,0.478-0.465,0.685-0.724c4.009-5.013,9.075-8.631,15.012-10.94
			c6.285-2.444,12.631-3.666,19.431-1.532c7.411,2.326,15.013,2.077,22.441-0.185c3.448-1.05,6.862-1.244,10.329-0.632
			c9.212,1.626,17.037,5.768,23.065,13.049C115.84,102.653,116.129,103.119,116.472,103.6z M107.437,113.653
			c-2.146-3.906-7.095-8.076-11.58-9.678c-3.456-1.235-6.908-2.156-10.676-1.054c-8.669,2.537-17.447,2.782-26.268,0.749
			c-3.542-0.816-7.005-1.793-10.748-0.728c-6.235,1.774-11.123,5.232-14.709,10.595C53.204,131.351,85.81,132.632,107.437,113.653z"
			/>
		<path fill="#3AAFA9" d="M70.554,27.444c14.326-0.368,27.384,12.054,27.134,27.479C97.444,69.899,85.198,81.861,70.137,81.69
			c-15.038-0.171-27.041-12.422-26.875-27.43C43.428,39.32,55.651,27.31,70.554,27.444z M84.186,54.6
			c0.008-7.611-6.037-13.704-13.688-13.797c-7.48-0.091-13.728,6.153-13.738,13.729c-0.011,7.604,6.044,13.713,13.682,13.806
			C77.919,68.429,84.178,62.172,84.186,54.6z"/>
	</g>
</g>
<g id="Layer_7" display="none">
	<g id="Layer_5" display="inline">
		<g>
			<g>
				<path fill="#3AAFA9" d="M66.759-3.346c0.629,0,1.258,0.005,1.887,0.009c0.688,0.005,1.375,0.01,2.063,0.01h0.103l0.103-0.002
					c0.31-0.005,0.622-0.008,0.932-0.008c27.05,0,51.138,20.365,56.03,47.37c2.836,15.659,0.037,29.522-8.557,42.382
					c-8.437,12.624-37.236,44.405-48.889,56.963c-5.451-5.339-31.324-31.027-44.511-50.288c-5.191-7.581-9.085-14.076-11.223-21.13
					c-4.586-15.135-3.386-29.258,3.67-43.178C27.363,11.03,41.676,0.623,62.12-3.035c0.924-0.165,1.69-0.257,2.341-0.279
					C65.119-3.336,65.85-3.346,66.759-3.346 M70.252,90.307c0.198,0.003,0.397,0.005,0.594,0.005c8.897,0,17.748-3.576,24.283-9.81
					c7.022-6.7,10.915-15.862,10.962-25.8c0.044-9.384-3.659-18.273-10.429-25.029c-6.709-6.696-15.53-10.406-24.841-10.449
					l-0.158,0c-9.18,0-17.908,3.454-24.577,9.725c-7.072,6.65-11.02,15.808-11.119,25.786c-0.093,9.374,3.54,18.257,10.228,25.012
					C51.822,86.439,60.951,90.285,70.252,90.307 M66.759-15.346c-0.902,0-1.804,0.009-2.705,0.04
					c-1.353,0.046-2.713,0.22-4.047,0.459C36.355-10.616,18.562,1.851,7.661,23.358c-8.436,16.644-9.883,34.156-4.451,52.083
					c2.707,8.934,7.593,16.816,12.806,24.429c15.6,22.785,47.107,53.144,47.107,53.144c2.558,2.59,5.002,3.955,7.459,3.955
					c2.491,0,4.996-1.403,7.648-4.357c0,0,39.937-42.878,51.066-59.529c10.417-15.587,13.739-32.694,10.388-51.189
					c-5.919-32.676-34.943-57.231-67.838-57.231c-0.378,0-0.759,0.003-1.138,0.01C69.392-15.327,68.075-15.346,66.759-15.346
					L66.759-15.346z M70.332,78.307c-12.75,0-23.491-10.596-23.364-23.453c0.141-14.261,11.534-23.63,23.697-23.63
					c0.036,0,0.072,0,0.107,0c12.618,0.057,23.38,10.65,23.32,23.421c-0.067,14.242-11.507,23.667-23.245,23.667
					c-0.158,0-0.318-0.002-0.476-0.005C70.358,78.307,70.345,78.307,70.332,78.307L70.332,78.307z"/>
			</g>
		</g>
	</g>
</g>
</svg>
